<mxfile host="Electron" agent="Mozilla/5.0 (Windows NT 10.0; Win64; x64) AppleWebKit/537.36 (KHTML, like Gecko) draw.io/26.0.4 Chrome/128.0.6613.186 Electron/32.2.5 Safari/537.36" version="26.0.4">
  <diagram name="第 1 页" id="d_J2aAFMsLTex1sSk6kd">
    <mxGraphModel dx="1050" dy="621" grid="0" gridSize="10" guides="1" tooltips="1" connect="1" arrows="1" fold="1" page="0" pageScale="1" pageWidth="827" pageHeight="1169" math="0" shadow="0">
      <root>
        <mxCell id="0" />
        <mxCell id="1" parent="0" />
        <mxCell id="i0Kv8Pe3D7WvCCgPH89L-3" style="edgeStyle=orthogonalEdgeStyle;rounded=0;orthogonalLoop=1;jettySize=auto;html=1;entryX=0.5;entryY=0;entryDx=0;entryDy=0;" parent="1" source="sHeOyGrrJXmcRa8ddizQ-1" target="i0Kv8Pe3D7WvCCgPH89L-2" edge="1">
          <mxGeometry relative="1" as="geometry" />
        </mxCell>
        <mxCell id="i0Kv8Pe3D7WvCCgPH89L-7" value="&lt;font style=&quot;font-size: 16px;&quot;&gt;&lt;b style=&quot;&quot;&gt;调用start()方法&lt;/b&gt;&lt;/font&gt;" style="edgeLabel;html=1;align=center;verticalAlign=middle;resizable=0;points=[];" parent="i0Kv8Pe3D7WvCCgPH89L-3" vertex="1" connectable="0">
          <mxGeometry x="-0.0316" y="1" relative="1" as="geometry">
            <mxPoint as="offset" />
          </mxGeometry>
        </mxCell>
        <mxCell id="sHeOyGrrJXmcRa8ddizQ-1" value="&lt;font style=&quot;font-size: 14px; color: rgb(0, 0, 0);&quot;&gt;&lt;b&gt;NEW&lt;/b&gt;&lt;/font&gt;" style="rounded=0;whiteSpace=wrap;html=1;strokeWidth=2;fillColor=#f5f5f5;fontColor=#333333;strokeColor=#000000;" parent="1" vertex="1">
          <mxGeometry x="303" y="154" width="171" height="60" as="geometry" />
        </mxCell>
        <mxCell id="kbHSGaVf30cFMdWOs4lV-3" style="rounded=0;orthogonalLoop=1;jettySize=auto;html=1;entryX=0;entryY=0.5;entryDx=0;entryDy=0;" parent="1" source="i0Kv8Pe3D7WvCCgPH89L-2" target="i0Kv8Pe3D7WvCCgPH89L-12" edge="1">
          <mxGeometry relative="1" as="geometry" />
        </mxCell>
        <mxCell id="kbHSGaVf30cFMdWOs4lV-18" style="rounded=0;orthogonalLoop=1;jettySize=auto;html=1;entryX=0;entryY=0.5;entryDx=0;entryDy=0;exitX=1;exitY=0.25;exitDx=0;exitDy=0;" parent="1" source="i0Kv8Pe3D7WvCCgPH89L-2" target="i0Kv8Pe3D7WvCCgPH89L-11" edge="1">
          <mxGeometry relative="1" as="geometry" />
        </mxCell>
        <mxCell id="i0Kv8Pe3D7WvCCgPH89L-2" value="&lt;span style=&quot;font-size: 14px;&quot;&gt;&lt;font style=&quot;color: rgb(0, 0, 0);&quot;&gt;&lt;b&gt;RUNNABLE&lt;/b&gt;&lt;/font&gt;&lt;/span&gt;" style="rounded=0;whiteSpace=wrap;html=1;strokeWidth=2;fillColor=#fff2cc;strokeColor=#d6b656;" parent="1" vertex="1">
          <mxGeometry x="303" y="318" width="174" height="60" as="geometry" />
        </mxCell>
        <mxCell id="i0Kv8Pe3D7WvCCgPH89L-4" value="&lt;b&gt;&lt;font style=&quot;font-size: 14px;&quot;&gt;就绪状态&lt;/font&gt;&lt;/b&gt;" style="rounded=0;whiteSpace=wrap;html=1;fillColor=#fff2cc;strokeColor=#d6b656;strokeWidth=2;" parent="1" vertex="1">
          <mxGeometry x="389" y="378" width="88" height="30" as="geometry" />
        </mxCell>
        <mxCell id="i0Kv8Pe3D7WvCCgPH89L-5" value="&lt;b&gt;&lt;font style=&quot;font-size: 14px;&quot;&gt;运行状态&lt;/font&gt;&lt;/b&gt;" style="rounded=0;whiteSpace=wrap;html=1;fillColor=#d5e8d4;strokeColor=#82b366;strokeWidth=2;" parent="1" vertex="1">
          <mxGeometry x="303" y="378" width="86" height="30" as="geometry" />
        </mxCell>
        <mxCell id="i0Kv8Pe3D7WvCCgPH89L-9" style="edgeStyle=orthogonalEdgeStyle;rounded=0;orthogonalLoop=1;jettySize=auto;html=1;entryX=0.5;entryY=0;entryDx=0;entryDy=0;" parent="1" source="i0Kv8Pe3D7WvCCgPH89L-6" target="i0Kv8Pe3D7WvCCgPH89L-8" edge="1">
          <mxGeometry relative="1" as="geometry" />
        </mxCell>
        <mxCell id="c1ix_1_bVWjmdykn9c1X-1" value="&lt;b style=&quot;font-size: 12px;&quot;&gt;&lt;font style=&quot;font-size: 16px;&quot;&gt;线程执行完毕&lt;/font&gt;&lt;/b&gt;" style="edgeLabel;html=1;align=center;verticalAlign=middle;resizable=0;points=[];" vertex="1" connectable="0" parent="i0Kv8Pe3D7WvCCgPH89L-9">
          <mxGeometry x="0.04" y="1" relative="1" as="geometry">
            <mxPoint as="offset" />
          </mxGeometry>
        </mxCell>
        <mxCell id="i0Kv8Pe3D7WvCCgPH89L-6" value="&lt;span style=&quot;font-size: 14px;&quot;&gt;&lt;b&gt;阻塞状态&lt;/b&gt;&lt;/span&gt;" style="rounded=0;whiteSpace=wrap;html=1;strokeWidth=2;fillColor=#B3B3B3;strokeColor=#B3B3B3;" parent="1" vertex="1">
          <mxGeometry x="303" y="408" width="174" height="34" as="geometry" />
        </mxCell>
        <mxCell id="i0Kv8Pe3D7WvCCgPH89L-8" value="&lt;span style=&quot;font-size: 14px;&quot;&gt;&lt;b&gt;TERMINATED&lt;/b&gt;&lt;/span&gt;" style="rounded=0;whiteSpace=wrap;html=1;strokeWidth=2;fillColor=#f8cecc;strokeColor=#b85450;" parent="1" vertex="1">
          <mxGeometry x="304" y="547" width="172" height="60" as="geometry" />
        </mxCell>
        <mxCell id="kbHSGaVf30cFMdWOs4lV-20" style="rounded=0;orthogonalLoop=1;jettySize=auto;html=1;entryX=1;entryY=0.5;entryDx=0;entryDy=0;exitX=0;exitY=0.75;exitDx=0;exitDy=0;" parent="1" source="i0Kv8Pe3D7WvCCgPH89L-11" target="i0Kv8Pe3D7WvCCgPH89L-2" edge="1">
          <mxGeometry relative="1" as="geometry" />
        </mxCell>
        <mxCell id="i0Kv8Pe3D7WvCCgPH89L-11" value="&lt;font color=&quot;#000000&quot;&gt;&lt;span style=&quot;font-size: 14px;&quot;&gt;&lt;b&gt;BLOCKED&lt;/b&gt;&lt;/span&gt;&lt;/font&gt;" style="rounded=0;whiteSpace=wrap;html=1;strokeWidth=2;fillColor=#f5f5f5;fontColor=#333333;strokeColor=#000000;" parent="1" vertex="1">
          <mxGeometry x="927" y="154" width="171" height="60" as="geometry" />
        </mxCell>
        <mxCell id="kbHSGaVf30cFMdWOs4lV-5" style="edgeStyle=orthogonalEdgeStyle;rounded=0;orthogonalLoop=1;jettySize=auto;html=1;exitX=0;exitY=0.75;exitDx=0;exitDy=0;entryX=1;entryY=0.75;entryDx=0;entryDy=0;" parent="1" source="i0Kv8Pe3D7WvCCgPH89L-12" target="i0Kv8Pe3D7WvCCgPH89L-2" edge="1">
          <mxGeometry relative="1" as="geometry" />
        </mxCell>
        <mxCell id="kbHSGaVf30cFMdWOs4lV-7" style="edgeStyle=orthogonalEdgeStyle;rounded=0;orthogonalLoop=1;jettySize=auto;html=1;entryX=0.5;entryY=1;entryDx=0;entryDy=0;" parent="1" source="i0Kv8Pe3D7WvCCgPH89L-12" target="i0Kv8Pe3D7WvCCgPH89L-11" edge="1">
          <mxGeometry relative="1" as="geometry" />
        </mxCell>
        <mxCell id="c1ix_1_bVWjmdykn9c1X-2" value="&lt;b style=&quot;font-size: 12px;&quot;&gt;&lt;font style=&quot;font-size: 16px;&quot;&gt;竞争锁失败&lt;/font&gt;&lt;/b&gt;" style="edgeLabel;html=1;align=center;verticalAlign=middle;resizable=0;points=[];" vertex="1" connectable="0" parent="kbHSGaVf30cFMdWOs4lV-7">
          <mxGeometry x="-0.0692" y="1" relative="1" as="geometry">
            <mxPoint as="offset" />
          </mxGeometry>
        </mxCell>
        <mxCell id="i0Kv8Pe3D7WvCCgPH89L-12" value="&lt;font color=&quot;#000000&quot;&gt;&lt;span style=&quot;font-size: 14px;&quot;&gt;&lt;b&gt;WAITING&lt;/b&gt;&lt;/span&gt;&lt;/font&gt;" style="rounded=0;whiteSpace=wrap;html=1;strokeWidth=2;fillColor=#f5f5f5;fontColor=#333333;strokeColor=#000000;" parent="1" vertex="1">
          <mxGeometry x="927" y="318" width="171" height="60" as="geometry" />
        </mxCell>
        <mxCell id="kbHSGaVf30cFMdWOs4lV-11" style="rounded=0;orthogonalLoop=1;jettySize=auto;html=1;entryX=1;entryY=0.5;entryDx=0;entryDy=0;exitX=0;exitY=0.5;exitDx=0;exitDy=0;" parent="1" source="i0Kv8Pe3D7WvCCgPH89L-13" target="i0Kv8Pe3D7WvCCgPH89L-6" edge="1">
          <mxGeometry relative="1" as="geometry" />
        </mxCell>
        <mxCell id="kbHSGaVf30cFMdWOs4lV-17" style="edgeStyle=orthogonalEdgeStyle;rounded=0;orthogonalLoop=1;jettySize=auto;html=1;entryX=1;entryY=0.5;entryDx=0;entryDy=0;" parent="1" source="i0Kv8Pe3D7WvCCgPH89L-13" target="i0Kv8Pe3D7WvCCgPH89L-11" edge="1">
          <mxGeometry relative="1" as="geometry">
            <Array as="points">
              <mxPoint x="1268" y="505" />
              <mxPoint x="1268" y="184" />
            </Array>
          </mxGeometry>
        </mxCell>
        <mxCell id="c1ix_1_bVWjmdykn9c1X-3" value="&lt;b style=&quot;font-size: 12px;&quot;&gt;&lt;font style=&quot;font-size: 16px;&quot;&gt;竞争锁失败&lt;/font&gt;&lt;/b&gt;" style="edgeLabel;html=1;align=center;verticalAlign=middle;resizable=0;points=[];" vertex="1" connectable="0" parent="kbHSGaVf30cFMdWOs4lV-17">
          <mxGeometry x="-0.1942" relative="1" as="geometry">
            <mxPoint as="offset" />
          </mxGeometry>
        </mxCell>
        <mxCell id="i0Kv8Pe3D7WvCCgPH89L-13" value="&lt;font color=&quot;#000000&quot;&gt;&lt;span style=&quot;font-size: 14px;&quot;&gt;&lt;b&gt;TIMED_WAITING&lt;/b&gt;&lt;/span&gt;&lt;/font&gt;" style="rounded=0;whiteSpace=wrap;html=1;strokeWidth=2;fillColor=#f5f5f5;fontColor=#333333;strokeColor=#000000;" parent="1" vertex="1">
          <mxGeometry x="1036" y="475" width="171" height="60" as="geometry" />
        </mxCell>
        <mxCell id="kbHSGaVf30cFMdWOs4lV-2" style="edgeStyle=orthogonalEdgeStyle;rounded=0;orthogonalLoop=1;jettySize=auto;html=1;entryX=0;entryY=0.5;entryDx=0;entryDy=0;" parent="1" source="kbHSGaVf30cFMdWOs4lV-1" target="i0Kv8Pe3D7WvCCgPH89L-5" edge="1">
          <mxGeometry relative="1" as="geometry" />
        </mxCell>
        <mxCell id="kbHSGaVf30cFMdWOs4lV-1" value="&lt;b&gt;&lt;font style=&quot;font-size: 16px;&quot;&gt;CPU&lt;/font&gt;&lt;/b&gt;" style="ellipse;whiteSpace=wrap;html=1;aspect=fixed;fillColor=#dae8fc;strokeColor=#6c8ebf;" parent="1" vertex="1">
          <mxGeometry x="109" y="353" width="80" height="80" as="geometry" />
        </mxCell>
        <mxCell id="kbHSGaVf30cFMdWOs4lV-4" value="&lt;b&gt;&lt;font style=&quot;font-size: 16px;&quot;&gt;调用wait()、join()、park()方法&lt;/font&gt;&lt;/b&gt;" style="text;html=1;align=center;verticalAlign=middle;resizable=0;points=[];autosize=1;strokeColor=none;fillColor=none;" parent="1" vertex="1">
          <mxGeometry x="584" y="312" width="239" height="31" as="geometry" />
        </mxCell>
        <mxCell id="kbHSGaVf30cFMdWOs4lV-6" value="&lt;b&gt;&lt;font style=&quot;font-size: 16px;&quot;&gt;调用notify()、notifyAll()、interrupt()、unpark(&lt;/font&gt;&lt;/b&gt;&lt;span style=&quot;background-color: transparent;&quot;&gt;&lt;font face=&quot;Helvetica&quot; style=&quot;font-size: 16px;&quot;&gt;&lt;b style=&quot;&quot;&gt;Thread&lt;/b&gt;&lt;/font&gt;&lt;/span&gt;&lt;b style=&quot;background-color: transparent; color: light-dark(rgb(0, 0, 0), rgb(255, 255, 255));&quot;&gt;&lt;font style=&quot;font-size: 16px;&quot;&gt;)方法&lt;/font&gt;&lt;/b&gt;" style="text;html=1;align=center;verticalAlign=middle;resizable=0;points=[];autosize=1;strokeColor=none;fillColor=none;" parent="1" vertex="1">
          <mxGeometry x="477" y="368" width="453" height="31" as="geometry" />
        </mxCell>
        <mxCell id="kbHSGaVf30cFMdWOs4lV-9" style="rounded=0;orthogonalLoop=1;jettySize=auto;html=1;entryX=0;entryY=0.25;entryDx=0;entryDy=0;exitX=1;exitY=0;exitDx=0;exitDy=0;" parent="1" source="i0Kv8Pe3D7WvCCgPH89L-6" target="i0Kv8Pe3D7WvCCgPH89L-13" edge="1">
          <mxGeometry relative="1" as="geometry" />
        </mxCell>
        <mxCell id="kbHSGaVf30cFMdWOs4lV-10" value="&lt;b&gt;&lt;font style=&quot;font-size: 16px;&quot;&gt;sleep(long)、wait(long)、join(long)、&lt;/font&gt;&lt;/b&gt;&lt;span style=&quot;font-size: 16px;&quot;&gt;&lt;b&gt;parkNanos(long)、parkUntil(long)&lt;/b&gt;&lt;/span&gt;" style="text;html=1;align=center;verticalAlign=middle;resizable=0;points=[];autosize=1;strokeColor=none;fillColor=none;fontStyle=0;rotation=7;" parent="1" vertex="1">
          <mxGeometry x="486" y="417" width="557" height="31" as="geometry" />
        </mxCell>
        <mxCell id="kbHSGaVf30cFMdWOs4lV-12" value="&lt;b style=&quot;forced-color-adjust: none; color: rgb(0, 0, 0); font-family: Helvetica; font-size: 12px; font-style: normal; font-variant-ligatures: normal; font-variant-caps: normal; letter-spacing: normal; orphans: 2; text-align: center; text-indent: 0px; text-transform: none; widows: 2; word-spacing: 0px; -webkit-text-stroke-width: 0px; white-space: nowrap; background-color: rgb(255, 255, 255); text-decoration-thickness: initial; text-decoration-style: initial; text-decoration-color: initial;&quot;&gt;&lt;font style=&quot;forced-color-adjust: none; font-size: 16px;&quot;&gt;超时，线程运行结束，调用notify()、notifyAll()、interrupt()、&lt;/font&gt;&lt;/b&gt;&lt;b style=&quot;forced-color-adjust: none; color: light-dark(rgb(0, 0, 0), rgb(255, 255, 255)); font-family: Helvetica; font-size: 12px; font-style: normal; font-variant-ligatures: normal; font-variant-caps: normal; letter-spacing: normal; orphans: 2; text-align: center; text-indent: 0px; text-transform: none; widows: 2; word-spacing: 0px; -webkit-text-stroke-width: 0px; white-space: nowrap; background-color: transparent; text-decoration-thickness: initial; text-decoration-style: initial; text-decoration-color: initial;&quot;&gt;&lt;font style=&quot;forced-color-adjust: none; font-size: 16px;&quot;&gt;&lt;b style=&quot;font-size: 12px;&quot;&gt;&lt;font style=&quot;font-size: 16px;&quot;&gt;unpark(&lt;/font&gt;&lt;/b&gt;&lt;span style=&quot;font-size: 12px; font-weight: 400; background-color: transparent;&quot;&gt;&lt;font style=&quot;font-size: 16px;&quot; face=&quot;Helvetica&quot;&gt;&lt;b&gt;Thread&lt;/b&gt;&lt;/font&gt;&lt;/span&gt;&lt;b style=&quot;color: light-dark(rgb(0, 0, 0), rgb(255, 255, 255)); font-size: 12px; background-color: transparent;&quot;&gt;&lt;font style=&quot;font-size: 16px;&quot;&gt;)&lt;/font&gt;&lt;/b&gt;方法&lt;/font&gt;&lt;/b&gt;" style="text;whiteSpace=wrap;html=1;rotation=8;" parent="1" vertex="1">
          <mxGeometry x="473.78" y="461.2" width="509" height="41" as="geometry" />
        </mxCell>
        <mxCell id="kbHSGaVf30cFMdWOs4lV-19" value="&lt;b&gt;&lt;font style=&quot;font-size: 16px;&quot;&gt;竞争锁失败&lt;/font&gt;&lt;/b&gt;" style="text;html=1;align=center;verticalAlign=middle;resizable=0;points=[];autosize=1;strokeColor=none;fillColor=none;rotation=340;" parent="1" vertex="1">
          <mxGeometry x="640" y="231" width="98" height="31" as="geometry" />
        </mxCell>
        <mxCell id="kbHSGaVf30cFMdWOs4lV-21" value="&lt;b&gt;&lt;font style=&quot;font-size: 16px;&quot;&gt;竞争锁成功&lt;/font&gt;&lt;/b&gt;" style="text;html=1;align=center;verticalAlign=middle;resizable=0;points=[];autosize=1;strokeColor=none;fillColor=none;rotation=340;" parent="1" vertex="1">
          <mxGeometry x="654.5" y="275" width="98" height="31" as="geometry" />
        </mxCell>
      </root>
    </mxGraphModel>
  </diagram>
</mxfile>
